<svg width="86" height="32" viewBox="0 0 86 32" fill="none" xmlns="http://www.w3.org/2000/svg">
<path d="M20.9528 10.37C20.7424 9.63854 20.4468 8.99227 20.0661 8.43116C19.6853 7.86003 19.2194 7.37908 18.6683 6.98831C18.1272 6.58751 17.506 6.28191 16.8046 6.07149C16.1133 5.86108 15.3467 5.75587 14.5051 5.75587C12.932 5.75587 11.5492 6.14664 10.3569 6.92819C9.17454 7.70973 8.25272 8.84698 7.59141 10.3399C6.9301 11.8229 6.59945 13.6364 6.59945 15.7807C6.59945 17.9249 6.92509 19.7485 7.57638 21.2515C8.22767 22.7545 9.14949 23.9017 10.3418 24.6933C11.5342 25.4749 12.942 25.8656 14.5652 25.8656C16.0381 25.8656 17.2956 25.6051 18.3377 25.0841C19.3897 24.553 20.1913 23.8066 20.7424 22.8447C21.3035 21.8828 21.5841 20.7455 21.5841 19.4329L22.9067 19.6283H14.971V14.7286H27.8515V18.6063C27.8515 21.3116 27.2803 23.6362 26.1381 25.5801C24.9958 27.5139 23.4227 29.0068 21.4187 30.0589C19.4148 31.101 17.1202 31.622 14.5351 31.622C11.6494 31.622 9.11442 30.9857 6.9301 29.7132C4.74579 28.4307 3.04242 26.6121 1.82 24.2574C0.607605 21.8928 0.00140664 19.0872 0.00140664 15.8408C0.00140664 13.3459 0.36212 11.1215 1.08355 9.16761C1.81499 7.20373 2.83701 5.54044 4.14961 4.17775C5.4622 2.81505 6.99022 1.778 8.73367 1.0666C10.4771 0.355191 12.3658 -0.000511709 14.3999 -0.000511709C16.1433 -0.000511709 17.7665 0.254994 19.2695 0.766004C20.7725 1.26699 22.1051 1.9784 23.2674 2.90022C24.4397 3.82204 25.3966 4.91921 26.1381 6.19173C26.8795 7.45423 27.3555 8.84698 27.5659 10.37H20.9528ZM30.2449 5.78593V0.42032H55.5249V5.78593H46.1013V31.2012H39.6686V5.78593H30.2449ZM78.6932 10.37C78.4828 9.63854 78.1872 8.99227 77.8065 8.43116C77.4257 7.86003 76.9598 7.37908 76.4087 6.98831C75.8676 6.58751 75.2464 6.28191 74.545 6.07149C73.8537 5.86108 73.0871 5.75587 72.2455 5.75587C70.6724 5.75587 69.2896 6.14664 68.0973 6.92819C66.9149 7.70973 65.9931 8.84698 65.3318 10.3399C64.6705 11.8229 64.3398 13.6364 64.3398 15.7807C64.3398 17.9249 64.6655 19.7485 65.3168 21.2515C65.9681 22.7545 66.8899 23.9017 68.0822 24.6933C69.2746 25.4749 70.6824 25.8656 72.3056 25.8656C73.7785 25.8656 75.036 25.6051 76.0781 25.0841C77.1301 24.553 77.9317 23.8066 78.4828 22.8447C79.0439 21.8828 79.3245 20.7455 79.3245 19.4329L80.6471 19.6283H72.7114V14.7286H85.5919V18.6063C85.5919 21.3116 85.0207 23.6362 83.8785 25.5801C82.7362 27.5139 81.1631 29.0068 79.1591 30.0589C77.1552 31.101 74.8606 31.622 72.2755 31.622C69.3898 31.622 66.8548 30.9857 64.6705 29.7132C62.4862 28.4307 60.7828 26.6121 59.5604 24.2574C58.348 21.8928 57.7418 19.0872 57.7418 15.8408C57.7418 13.3459 58.1025 11.1215 58.8239 9.16761C59.5554 7.20373 60.5774 5.54044 61.89 4.17775C63.2026 2.81505 64.7306 1.778 66.4741 1.0666C68.2175 0.355191 70.1062 -0.000511709 72.1403 -0.000511709C73.8837 -0.000511709 75.5069 0.254994 77.0099 0.766004C78.5129 1.26699 79.8455 1.9784 81.0078 2.90022C82.1801 3.82204 83.137 4.91921 83.8785 6.19173C84.6199 7.45423 85.0959 8.84698 85.3063 10.37H78.6932Z" fill="white"/>
</svg>
